<?xml version="1.0" encoding="UTF-8"?>
<svg width="752pt" height="752pt" version="1.1" viewBox="0 0 752 752" xmlns="http://www.w3.org/2000/svg">
 <g>
  <path d="m595.47 217.32-8.1289-8.1289-62.91 62.91-4.9492-4.9492 62.91-62.91-14.488-14.488-83.051 82.348-4.9492-4.9492 82.699-82.699-14.488-14.488-63.262 62.906-4.9492-4.9492 62.91-62.91-8.1289-8.1289c-1.7656-1.7656-4.9492-1.7656-6.7148 0l-80.227 79.875c-8.8359 8.8359-11.664 14.137-14.488 20.145-1.7656 3.1797-3.5352 6.7148-6.0078 10.25l57.605 57.605c3.8867-2.8281 7.0703-4.2422 10.25-6.0078 6.0078-3.1797 11.664-6.0078 20.145-14.488l80.223-80.227c1.7695-1.7656 1.7695-4.9492 0-6.7148z"/>
  <path d="m417.35 278.81c-3.5352 3.5352-7.0703 6.3633-10.25 9.1875l57.254 56.902c2.4727-3.1797 5.3008-6.7148 9.1875-10.25 2.1211-2.1211 3.8867-3.8867 6.0078-5.3008l-56.547-56.547c-1.7656 1.7656-3.5312 3.8867-5.6523 6.0078z"/>
  <path d="m392.26 297.89c-7.0703 4.2422-13.43 8.4805-21.207 15.551l67.504 67.504c7.0703-7.7734 11.309-14.137 15.551-21.207 1.7656-2.8281 3.8867-6.0078 6.0078-9.1875l-58.664-58.668c-3.1836 2.1211-6.3633 4.2422-9.1914 6.0078z"/>
  <path d="m233.93 593.71 184.13-184.13v-36.758l-176 176.36z"/>
  <path d="m378.83 333.95h-36.402l-184.13 183.78 44.531-7.7773z"/>
  <path d="m414.52 366.81-29.332-29.332-175.65 176 28.98 28.98z"/>
  <path d="m203.53 517.02-48.418 8.4805 71.391 71.391 8.4844-48.418z"/>
 </g>
</svg>
