<?xml version="1.0" encoding="UTF-8"?>
<svg width="752pt" height="752pt" version="1.1" viewBox="0 0 752 752" xmlns="http://www.w3.org/2000/svg">
 <g>
  <path d="m478.98 407.54h-207.79c-2.4648 0-4.5352-1.9883-4.5352-4.5352v-142.16c0-2.4648 1.9883-4.5352 4.5352-4.5352h207.79c2.4648 0 4.5352 1.9883 4.5352 4.5352v142.16c0 2.4688-2.0703 4.5352-4.5352 4.5352zm-199.84-7.9531h191.88c2.4648 0 4.5352-1.9883 4.5352-4.5352v-126.25c0-2.4648-1.9883-4.5352-4.5352-4.5352h-191.88c-2.4648 0-4.5352 1.9883-4.5352 4.5352v126.25c0 2.4648 2.0703 4.5352 4.5352 4.5352z"/>
  <path d="m383.04 260.37h21.32c2.4648 0 4.5352-1.9883 4.5352-4.5352v-6.9219c0-2.4648-1.9883-4.5352-4.5352-4.5352h-16.867c-2.4648 0-4.5352-1.9883-4.5352-4.5352v-29.91c0-2.4648-1.9883-4.5352-4.5352-4.5352h-6.9219c-2.4648 0-4.5352 1.9883-4.5352 4.5352v29.992c0 2.4648-1.9883 4.5352-4.5352 4.5352h-15.035c-2.4648 0-4.5352 1.9883-4.5352 4.5352v6.9219c0 2.4648 1.9883 4.5352 4.5352 4.5352h19.57l16.074-0.003906z"/>
  <path d="m455.83 413.35v-5.3281c0-2.4648-1.9883-4.5352-4.5352-4.5352h-150.67c-2.4648 0-4.5352 1.9883-4.5352 4.5352v5.3281c0 2.4648 1.9883 4.5352 4.5352 4.5352h4.9336c2.7031 0 4.7734 2.3086 4.4531 5.0117l-13.445 119.17c-0.31641 2.4648 1.5117 4.6953 3.9766 5.0117l6.8398 0.79688c2.4648 0.31641 4.6953-1.5117 5.0117-3.9766l8.3516-74.223c0.23828-2.3086 2.1484-3.9766 4.4531-3.9766h37.309c2.4648 0 4.5352 1.9883 4.5352 4.5352v72.793c0 2.4648 1.9883 4.5352 4.5352 4.5352h6.9219c2.4648 0 4.5352-1.9883 4.5352-4.5352v-72.793c0-2.4648 1.9883-4.5352 4.5352-4.5352h39.141c2.3086 0 4.2148 1.75 4.4531 3.9766l8.3516 74.223c0.31641 2.4648 2.5469 4.2148 5.0117 3.9766l6.8398-0.79688c2.4648-0.31641 4.2148-2.5469 3.9766-5.0117l-13.445-119.17c-0.31641-2.7031 1.8281-5.0117 4.4531-5.0117h4.9336c2.5586 0 4.5469-2.0703 4.5469-4.5352zm-93.234 36.355h-34.527c-2.7031 0-4.7734-2.3086-4.4531-5.0117l2.5469-22.754c0.23828-2.3086 2.1484-3.9766 4.4531-3.9766h31.98c2.4648 0 4.5352 1.9883 4.5352 4.5352v22.754c0 2.3867-1.9922 4.4531-4.5352 4.4531zm20.445-4.5352v-22.754c0-2.4648 1.9883-4.5352 4.5352-4.5352h33.809c2.3086 0 4.2148 1.75 4.4531 3.9766l2.5469 22.754c0.31641 2.7031-1.8281 5.0117-4.4531 5.0117h-36.355c-2.5469 0.082031-4.5352-1.9844-4.5352-4.4531z"/>
 </g>
</svg>
