<?xml version="1.0" encoding="UTF-8"?>
<svg width="752pt" height="752pt" version="1.1" viewBox="0 0 752 752" xmlns="http://www.w3.org/2000/svg">
 <path d="m388.12 315.87c-0.89844-0.88281-0.90234-2.3281-0.007813-3.2188 0.88281-0.89453 2.3359-0.89844 3.2266-0.007813 0.37109 0.37109 0.57812 0.60547 0.71875 0.77344 0.035156 0.039063 0.0625 0.066407 0.10156 0.10547 0.93359 0.84375 1 2.2891 0.15625 3.2266-0.84375 0.93359-2.2891 1-3.2266 0.15625-0.18359-0.16406-0.30078-0.30078-0.46094-0.48438-0.097656-0.11719-0.22266-0.25781-0.50781-0.55078zm-71-7.7852c0.16406 0.1875 0.28516 0.32422 0.47656 0.50391 0.9375 0.84375 2.3789 0.77734 3.2266-0.15625 0.84375-0.9375 0.77734-2.3789-0.15625-3.2266-0.046875-0.042969-0.078125-0.078125-0.12109-0.125-0.1875-0.20703-0.42969-0.48828-0.75781-0.82031-0.89453-0.89453-2.3398-0.89453-3.2344 0-0.89453 0.89844-0.89453 2.3438 0 3.2383 0.39062 0.38281 0.49219 0.50391 0.56641 0.58594zm233.84-8.3398c-18.336 11.738-40.488 24.637-61.98 34.594 11.07 19.195 12.672 39.254 3.7539 54.777-11.52 20.059-38.129 28.203-73.031 22.371-22.055-0.20312-28.344 12.324-36.305 28.199-9.7461 19.426-21.586 43.031-66.617 43.031-6.1328 0-12.879-0.43359-20.32-1.3828-32.469-3.0117-60.473-15.359-80.977-35.711-19.125-18.992-29.66-43.059-29.66-67.781 0-29.375 16.758-56.855 47.199-77.367 29.824-20.102 69.379-31.176 111.38-31.176 47.02 0 82.629 9.4766 120.16 36.895l0.10938 0.09375c23.586-9.0273 44.07-14.082 66.57-20.484h-0.003907c38.672-10.105 45.242-5.457 19.719 13.941zm-123.72 19.895c0.10547-0.1875 0.85547-0.88281 0.94531-1.0664 4.3594-8.168-0.59766-12.68-14.883-13.547-8.25-0.20313-11.156-3.2812-8.7461-9.2344-48.977 16.391-1.8594 45.23 22.684 23.848zm-68.824-7.9883c0.11719-0.19922 0.91406-0.95313 1.0195-1.1445 4.6797-8.7617-0.64453-13.602-15.965-14.531-8.8477-0.22266-11.977-3.5195-9.3789-9.9062-52.539 17.582-1.9961 48.52 24.324 25.582zm-66.512 16.855c0.10937-0.19141 0.87891-0.91797 0.98437-1.1055 4.5195-8.4609-0.625-13.145-15.43-14.035-8.543-0.20703-11.57-3.4023-9.0703-9.5664-50.746 16.984-1.918 46.867 23.516 24.707zm-36.23 38.902c0.11719-0.20312 0.94141-0.98438 1.0547-1.1836 4.8438-9.0547-0.66797-14.062-16.508-15.02-9.1484-0.22656-12.375-3.6406-9.7031-10.238-54.312 18.176-2.0547 50.156 25.156 26.441zm2.7422 32.531c-9.7031-0.24219-13.129-3.8594-10.289-10.863-57.617 19.285-2.1836 53.219 26.684 28.059 0.125-0.22266 1-1.0469 1.1172-1.2578 5.125-9.6094-0.71094-14.922-17.512-15.938zm58.25 30.516c-9.6953-0.24609-13.125-3.8711-10.289-10.867-57.617 19.285-2.1836 53.219 26.691 28.059 0.125-0.22266 1-1.043 1.1172-1.2578 5.125-9.6094-0.70703-14.922-17.52-15.934zm144.58-58.457c0-10.516-11.887-18.758-27.066-18.758-15.176 0-27.066 8.2461-27.066 18.758 0 10.516 11.895 18.758 27.066 18.758s27.066-8.2422 27.066-18.758zm1.6602-55.742c-24.258 10.195-48.324 20.711-72.129 31.301-17.551 7.8125-36.414 17.156-54.168 25.395-15.227-5.1992-27.293 1.6289-36.184 20.488 18.676-7.0039 39.664 7.8281 41.012-11.027 28.02-11.43 78.223-30.402 127.87-50.414 105.49-44.84 103.89-60.312-6.3984-15.742zm-204.85 13.25c1.9531 0.98047 4.1211 1.6914 6.4844 2.0742 2.207 0.36328 4.582 0.42969 7.1055 0.16406 1.2578-0.125 2.1641-1.2461 2.0391-2.5-0.125-1.2578-1.2422-2.1641-2.5-2.0391-2.1211 0.22656-4.0938 0.16797-5.9102-0.125-1.8789-0.30859-3.6055-0.875-5.1797-1.6641-1.1367-0.5625-2.5039-0.097656-3.0703 1.0312-0.5625 1.1289-0.097657 2.4961 1.0312 3.0586zm136.48-8.8359c1.8945 0.94531 3.9922 1.6328 6.2812 2.0117 2.1406 0.34766 4.4297 0.42187 6.875 0.16016 1.2578-0.125 2.1641-1.2422 2.0391-2.5-0.125-1.2578-1.2461-2.1641-2.5-2.0391-2.0391 0.21094-3.9375 0.16016-5.6836-0.125-1.8008-0.30078-3.4648-0.83984-4.9766-1.5938-1.1367-0.5625-2.5039-0.097656-3.0703 1.0312-0.55469 1.125-0.097656 2.5 1.0352 3.0547zm-71.129-8.0586c2.0195 1.0039 4.2539 1.7383 6.6875 2.1367 2.2812 0.37109 4.7305 0.44531 7.3359 0.16797 1.2578-0.125 2.1641-1.2461 2.0391-2.5-0.125-1.2578-1.2422-2.1641-2.5-2.0391-2.1992 0.23828-4.2422 0.17578-6.1328-0.12891-1.9492-0.32031-3.75-0.91406-5.3828-1.7305-1.1367-0.5625-2.5039-0.097656-3.0703 1.0312-0.5625 1.1328-0.097657 2.5078 1.0234 3.0625zm-71.461 12.492c0.16406 0.19141 0.28125 0.32422 0.46875 0.49219 0.9375 0.84375 2.3789 0.77734 3.2266-0.15625 0.84375-0.9375 0.77734-2.3789-0.15625-3.2266-0.042969-0.039063-0.074219-0.074219-0.10938-0.11719-0.14844-0.16797-0.35156-0.40234-0.74609-0.79297-0.89453-0.88281-2.3398-0.87891-3.2266 0.007813-0.88281 0.89844-0.87891 2.3398 0.007812 3.2227 0.30469 0.3125 0.4375 0.45703 0.53516 0.57031zm-0.64062 90.859c-2.4375 0.26172-4.6953 0.19141-6.7891-0.14844-2.1641-0.35156-4.1562-1.0156-5.9688-1.918-1.1367-0.5625-2.5039-0.097656-3.0703 1.0312-0.5625 1.1367-0.097657 2.5039 1.0312 3.0703 2.1992 1.0977 4.625 1.8906 7.2734 2.3242 2.4844 0.40625 5.1484 0.48828 7.9844 0.1875 1.2578-0.125 2.168-1.25 2.0391-2.5039-0.125-1.2617-1.2422-2.168-2.5-2.043zm-18.203-5.8867c-0.19141-0.22266-0.46094-0.52344-0.82031-0.88281-0.89453-0.89453-2.3398-0.89453-3.2344 0-0.89453 0.89453-0.89453 2.3398 0 3.2344 0.42578 0.42578 0.54297 0.55469 0.62891 0.65625 0.17578 0.20312 0.30469 0.34766 0.50781 0.53516 0.9375 0.84375 2.3789 0.77734 3.2266-0.15625 0.84375-0.93359 0.78125-2.3789-0.16016-3.2227-0.054687-0.058593-0.089844-0.10547-0.14844-0.16406zm76.469 36.395c-2.4375 0.26172-4.6953 0.19141-6.7891-0.14844-2.1641-0.35156-4.1562-1.0156-5.9688-1.9141-1.1367-0.5625-2.5039-0.097656-3.0703 1.0312-0.5625 1.1367-0.10156 2.5039 1.0312 3.0703 2.1875 1.0977 4.6211 1.8906 7.2734 2.3242 2.4844 0.40625 5.1484 0.48828 7.9844 0.1875 1.25-0.125 2.1641-1.2422 2.0391-2.5039-0.12891-1.2656-1.2422-2.1719-2.5-2.0469zm-18.207-5.8867c-0.19141-0.22266-0.46094-0.52344-0.82031-0.88281-0.89453-0.89453-2.3398-0.89453-3.2344 0s-0.89453 2.3398 0 3.2344c0.42578 0.42578 0.54297 0.55469 0.62891 0.65625 0.17578 0.20312 0.30469 0.34766 0.50781 0.53516 0.9375 0.84375 2.3789 0.77734 3.2266-0.15625 0.84375-0.93359 0.78125-2.3789-0.16016-3.2188-0.0625-0.0625-0.097656-0.10547-0.14844-0.16797zm-55.352-72.371c-0.125-1.2578-1.2461-2.1641-2.5-2.0391-2.2812 0.24219-4.4023 0.18359-6.3633-0.13672-2.0195-0.32812-3.8867-0.94531-5.5859-1.793-1.1367-0.5625-2.5039-0.097657-3.0703 1.0312-0.5625 1.1367-0.097656 2.5039 1.0312 3.0703 2.082 1.0352 4.3828 1.7891 6.8906 2.2031 2.3516 0.38672 4.8711 0.46094 7.5586 0.16797 1.2539-0.12891 2.1641-1.2461 2.0391-2.5039zm-19.547-7.5469c-0.16016-0.18359-0.37109-0.42969-0.78906-0.83984-0.89453-0.88281-2.3398-0.87891-3.2266 0.007812-0.88281 0.89453-0.87891 2.3398 0.007813 3.2266 0.32422 0.32422 0.46875 0.48828 0.57031 0.60938 0.16797 0.19141 0.28906 0.33984 0.48828 0.51172 0.9375 0.84375 2.3789 0.77734 3.2266-0.15625 0.85156-0.93359 0.78125-2.3711-0.15625-3.2266-0.046875-0.042969-0.078125-0.082031-0.12109-0.13281z"/>
</svg>
