<?xml version="1.0" encoding="UTF-8"?>
<svg width="752pt" height="752pt" version="1.1" viewBox="0 0 752 752" xmlns="http://www.w3.org/2000/svg">
 <g>
  <path d="m526.59 215.52c-10.008-10.859-27.773-11.867-37.797-0.97266l-91.762 99.789c-5.5234 6.0195-9.2227 12.582-9.8359 18.824-0.47656 5.0117 1.1406 10.008 5.6602 14.527 4.5195 4.5 9.5117 6.1367 14.527 5.6445 6.2383-0.59766 12.785-4.2969 18.805-9.8359l99.809-91.762c10.316-9.4805 9.9922-25.984 0.59766-36.215z"/>
  <path d="m400.64 459.55-78.137-55.41-104.17 134.57c-0.066407 0.35937 0.015624 0.9375 0.23828 1.6523 0.62891 2.1484 2.457 4.1094 4.7578 4.6211 1.7578 0.39062 4.0234 0.035156 6.7695-1.5508v0.015625c0.035157-0.015625 0.050782-0.035157 0.085938-0.050781 31.457-17.594 60.609-30.996 89.746-44.398 26.359-12.121 52.699-24.227 80.711-39.453z"/>
  <path d="m373.5 425.84 2.457-2.4375c0.47656-0.49609 0.85156-0.69922 1.1094-1.4336 0.13672-0.375 0.17188-0.78516 0.085938-1.2109-1.6719-8.3867-3.5977-16.965-4.6211-25.625-0.88672-7.3125-1.1406-14.68-0.050781-21.617 0.15234-1.2266 0.69922-2.4219 1.6367-3.375 3.9219-4.0391 8.2695-8.7617 11.848-12.684-1.1758-1.0586-2.3008-2.1992-3.3242-3.3945-4.3828 4.8438-8.7461 9.582-13.641 14.559-0.32422 0.32422-0.51172 0.71484-0.59766 1.1602-3.2891 15.227 0.10156 32.242 3.1211 47.004 0.085937 0.44141 0.015625 0.050782 0.035156 0.17188-0.035156-0.22266-0.12109-0.64844 0.085938 0.41016 0.33984 1.8594-0.20313 3.8516-1.6367 5.3008l-0.41016 0.39062 3.9062 2.7773z"/>
 </g>
</svg>
